# xmcd CD database file
#
# Track frame offsets:
#	225
#	25484
#	57628
#	101432
#	129357
#	165796
#	193990
#	226219
#
# Disc length: 3331 seconds
#
# Revision: 0
# Processed by: cddbd v1.5.2PL0 Copyright (c) Steve Scherf et al.
# Submitted via: CDex 1.70beta2
#
DISCID=640d0008
DTITLE=Miguel Martins . Kaleidoscópio - The Newcomer
DYEAR=2007
DGENRE=Jazz
TTITLE0=Raimunds groove
TTITLE1=An elefant in a chinese store
TTITLE2=Kaleidoscópio
TTITLE3=Four Beers
TTITLE4=Last Call to Lisbon-Horta
TTITLE5=Broken tou
TTITLE6=Apolo (to my brother)
TTITLE7=Ventos Sul
EXTD=YEAR: 2007
EXTT0=
EXTT1=
EXTT2=
EXTT3=
EXTT4=
EXTT5=
EXTT6=
EXTT7=
PLAYORDER=
